HIERARCHY
ROOT Hips
{
	OFFSET 0.000000 0.000000 0.000000
	CHANNELS 6 Xposition Yposition Zposition Xrotation Yrotation Zrotation
	JOINT LeftUpLeg_virtual
	{
		OFFSET 0.000000 0.000000 0.000000
		CHANNELS 3 Xrotation Yrotation Zrotation
		JOINT LeftUpLeg
		{
			OFFSET 10.205400 -3.823500 0.155100
			CHANNELS 3 Xrotation Yrotation Zrotation
			JOINT LeftLeg
			{
				OFFSET 0.708757 -12.982077 0.567790
				CHANNELS 3 Xrotation Yrotation Zrotation
				JOINT LeftFoot
				{
					OFFSET -0.708756 -10.717838 -2.184338
					CHANNELS 3 Xrotation Yrotation Zrotation
					JOINT LeftToeBase
					{
						OFFSET 0.108149 -7.191104 7.560241
						CHANNELS 3 Xrotation Yrotation Zrotation
						JOINT LeftToe_End
						{
							OFFSET 0.070230 0.081724 4.490308
							CHANNELS 3 Xrotation Yrotation Zrotation
							End Site
							{
								OFFSET 0 0 0
							}
						}
					}
				}
			}
		}
	}
	JOINT RightUpLeg_virtual
	{
		OFFSET 0.000000 0.000000 0.000000
		CHANNELS 3 Xrotation Yrotation Zrotation
		JOINT RightUpLeg
		{
			OFFSET -10.205400 -3.823500 0.005500
			CHANNELS 3 Xrotation Yrotation Zrotation
			JOINT RightLeg
			{
				OFFSET -0.708756 -12.982134 0.610632
				CHANNELS 3 Xrotation Yrotation Zrotation
				JOINT RightFoot
				{
					OFFSET 0.708754 -10.717769 -1.945823
					CHANNELS 3 Xrotation Yrotation Zrotation
					JOINT RightToeBase
					{
						OFFSET -0.108140 -7.191069 7.372968
						CHANNELS 3 Xrotation Yrotation Zrotation
						JOINT RightToe_End
						{
							OFFSET -0.070227 0.081735 4.479403
							CHANNELS 3 Xrotation Yrotation Zrotation
							End Site
							{
								OFFSET 0 0 0
							}
						}
					}
				}
			}
		}
	}
	JOINT Spine_virtual
	{
		OFFSET 0.000000 0.000000 0.000000
		CHANNELS 3 Xrotation Yrotation Zrotation
		JOINT Spine
		{
			OFFSET 0.000000 6.876099 0.125700
			CHANNELS 3 Xrotation Yrotation Zrotation
			JOINT Spine1
			{
				OFFSET 0.000000 5.730043 0.104720
				CHANNELS 3 Xrotation Yrotation Zrotation
				JOINT Spine1_split
				{
					OFFSET 0.000000 5.730043 0.104720
					CHANNELS 3 Xrotation Yrotation Zrotation
					JOINT Spine2
					{
						OFFSET 0.000000 5.730043 0.104720
						CHANNELS 3 Xrotation Yrotation Zrotation
						JOINT Neck_virtual
						{
							OFFSET 0.000000 0.000000 0.000000
							CHANNELS 3 Xrotation Yrotation Zrotation
							JOINT Neck
							{
								OFFSET 0.000000 10.314075 0.188496
								CHANNELS 3 Xrotation Yrotation Zrotation
								JOINT Head
								{
									OFFSET 0.000000 7.643700 -2.377400
									CHANNELS 3 Xrotation Yrotation Zrotation
									JOINT HeadTop_End
									{
										OFFSET 0.000000 43.788605 -13.619600
										CHANNELS 3 Xrotation Yrotation Zrotation
										End Site
										{
											OFFSET 0 0 0
										}
									}
								}
							}
						}
						JOINT LeftShoulder_virtual
						{
							OFFSET 0.000000 0.000000 0.000000
							CHANNELS 3 Xrotation Yrotation Zrotation
							JOINT LeftShoulder
							{
								OFFSET 2.196100 4.412489 0.087492
								CHANNELS 3 Xrotation Yrotation Zrotation
								JOINT LeftShoulder_split
								{
									OFFSET 2.196100 4.412489 0.087492
									CHANNELS 3 Xrotation Yrotation Zrotation
									JOINT LeftArm
									{
										OFFSET 8.771219 -2.981674 -0.026999
										CHANNELS 3 Xrotation Yrotation Zrotation
										JOINT LeftForeArm
										{
											OFFSET 8.512804 0.000000 -0.000000
											CHANNELS 3 Xrotation Yrotation Zrotation
											JOINT LeftHand
											{
												OFFSET 18.484802 0.000000 -0.000000
												CHANNELS 3 Xrotation Yrotation Zrotation
												End Site
												{
													OFFSET 0 0 0
												}
											}
										}
									}
								}
							}
						}
						JOINT RightShoulder_virtual
						{
							OFFSET 0.000000 0.000000 0.000000
							CHANNELS 3 Xrotation Yrotation Zrotation
							JOINT RightShoulder
							{
								OFFSET -2.196100 4.412496 0.070690
								CHANNELS 3 Xrotation Yrotation Zrotation
								JOINT RightShoulder_split
								{
									OFFSET -2.196100 4.412496 0.070690
									CHANNELS 3 Xrotation Yrotation Zrotation
									JOINT RightArm
									{
										OFFSET -8.771282 -2.981682 -0.094208
										CHANNELS 3 Xrotation Yrotation Zrotation
										JOINT RightForeArm
										{
											OFFSET -8.494598 0.000000 0.000000
											CHANNELS 3 Xrotation Yrotation Zrotation
											JOINT RightHand
											{
												OFFSET -18.483803 0.000000 0.000001
												CHANNELS 3 Xrotation Yrotation Zrotation
												End Site
												{
													OFFSET 0 0 0
												}
											}
										}
									}
								}
							}
						}
					}
				}
			}
		}
	}
}
MOTION
Frames: 5
Frame Time: 0.03333333
4.599052 5.108286 -6.460594 0.000000 0.000000 0.000000 -83.167491 63.470175 -5.043425 -91.784478 9.021805 4.337698 93.709485 2.283765 -4.431820 12.445825 -0.021354 12.749206 7.689294 0.077848 -0.115501 0.000000 0.000000 0.000000 -89.783888 68.257202 1.388311 -27.126926 12.977794 7.418711 79.044741 1.804290 -2.523791 29.663474 -2.117775 18.494255 -3.856672 0.524125 1.949146 0.000000 0.000000 0.000000 -79.310982 64.944130 -10.255164 15.943070 -8.321473 -6.400963 11.375374 -4.120145 -4.927278 0.640538 0.063459 0.560576 0.000000 0.000000 0.000000 10.078103 -5.396637 -3.532301 -3.148163 6.471255 -17.102614 -28.197372 13.453466 -14.100776 0.000000 0.000000 0.000000 10.307762 -4.791817 -4.112994 3.471409 -7.859986 30.508734 -2.925620 -0.773301 -0.922181 -89.396453 26.568418 -56.891197 2.356807 -30.017947 1.038445 0.000000 0.000000 0.000000 11.357360 -4.889008 -3.863986 5.106833 11.616711 -17.599280 14.899156 3.588392 0.104127 -47.685454 33.505951 105.293773 175.733992 72.962423 -175.462096 0.000000 0.000000 0.000000 
4.629577 5.107771 -6.510014 0.000000 0.000000 0.000000 -82.598147 63.391635 -5.352377 -91.947665 9.251013 4.445400 93.412823 2.032908 -4.522779 12.235714 -0.454728 12.698056 7.730728 0.055661 0.050517 0.000000 0.000000 0.000000 -89.214490 67.986515 0.670917 -27.267129 12.739741 7.493003 79.316617 1.775185 -2.590485 29.725724 -2.050858 18.423547 -3.842905 0.579016 1.907038 0.000000 0.000000 0.000000 -78.950744 64.892630 -10.321697 15.861952 -8.295236 -6.353801 11.382210 -4.198056 -4.870812 0.791680 0.401572 0.434756 0.000000 0.000000 0.000000 9.931213 -5.498995 -3.498764 -3.062488 6.404562 -17.123820 -28.051498 13.172147 -14.140931 0.000000 0.000000 0.000000 10.314795 -4.877220 -4.017933 3.346978 -7.668851 30.222645 -2.512461 -1.006586 -0.414296 -89.366420 26.298327 -57.117030 2.285135 -30.253606 0.873398 0.000000 0.000000 0.000000 11.309869 -4.993513 -3.819391 5.086609 11.699826 -17.376037 15.276203 3.525156 0.160891 -47.729611 33.521933 105.428696 175.873724 72.883350 -175.582252 0.000000 0.000000 0.000000 
4.658642 5.104692 -6.557508 0.000000 0.000000 0.000000 -82.262593 63.309829 -5.525612 -92.110381 9.668847 4.758545 93.088969 1.702398 -4.723634 11.634651 -0.891309 12.795496 7.823316 0.019275 0.132559 0.000000 0.000000 0.000000 -88.608160 67.685262 -0.072724 -27.341512 12.499023 7.605545 79.555004 1.860224 -2.696415 29.823792 -1.823223 18.709194 -4.114583 0.599815 1.836138 0.000000 0.000000 0.000000 -78.843585 64.971328 -10.099481 15.784651 -8.262044 -6.245133 11.357455 -4.293504 -4.765135 0.691912 0.764036 0.114745 0.000000 0.000000 0.000000 9.739703 -5.621783 -3.428381 -2.695785 6.243095 -17.287663 -27.855528 12.690157 -14.144484 0.000000 0.000000 0.000000 10.283568 -4.976233 -3.867452 3.149619 -7.411075 29.918349 -2.020703 -1.177889 0.250600 -89.127002 25.888686 -57.694055 2.370558 -29.904115 0.779123 0.000000 0.000000 0.000000 11.225713 -5.097738 -3.681728 5.006910 11.726888 -17.101614 15.460034 3.527134 0.146347 -47.640033 33.833902 105.425309 175.902670 73.240562 -175.698816 0.000000 0.000000 0.000000 
4.664119 5.105972 -6.581305 0.000000 0.000000 0.000000 -82.225909 63.275200 -5.467084 -92.196974 10.184120 5.189329 92.853539 1.340916 -4.971560 10.672200 -1.291021 13.094293 7.947316 -0.030024 0.127309 0.000000 0.000000 0.000000 -88.107036 67.406119 -0.657804 -27.253824 12.258345 7.740489 79.581116 1.947025 -2.853409 29.714957 -1.646819 19.183896 -4.509559 0.588450 1.778446 0.000000 0.000000 0.000000 -78.994177 65.193356 -9.609018 15.714915 -8.197663 -6.123033 11.290252 -4.368880 -4.644146 0.534844 1.085617 -0.135444 0.000000 0.000000 0.000000 9.536777 -5.722478 -3.347358 -2.119102 5.964976 -17.575489 -27.635794 12.076053 -14.132294 0.000000 0.000000 0.000000 10.193939 -5.054860 -3.701584 2.935009 -7.153864 29.629706 -1.708282 -1.102970 0.738438 -88.844553 25.321852 -58.362109 2.567008 -29.168196 0.744324 0.000000 0.000000 0.000000 11.098110 -5.167125 -3.512782 4.916405 11.643521 -16.875094 15.369845 3.666762 0.130786 -47.509963 34.406047 105.319768 175.927682 73.760005 -175.897780 0.000000 0.000000 0.000000 
4.653926 5.123297 -6.582552 0.000000 0.000000 0.000000 -82.418267 63.250209 -5.226153 -92.189140 10.617527 5.619334 92.716075 0.891991 -5.142333 9.520085 -1.711226 13.391551 8.058051 -0.078824 0.069600 0.000000 0.000000 0.000000 -87.862420 67.164590 -0.931629 -27.053666 12.025564 7.828140 79.457127 1.973041 -3.033126 29.462598 -1.601095 19.783788 -4.805698 0.546427 1.799949 0.000000 0.000000 0.000000 -79.383020 65.493782 -8.918683 15.645252 -8.082750 -6.033554 11.172873 -4.400047 -4.529419 0.497987 1.235394 -0.270108 0.000000 0.000000 0.000000 9.331114 -5.757423 -3.273577 -1.438834 5.595987 -17.950994 -27.469969 11.441625 -14.116039 0.000000 0.000000 0.000000 10.028719 -5.092243 -3.558833 2.762547 -6.985103 29.359753 -1.483937 -0.675335 1.057666 -88.612859 24.534569 -58.895519 2.791495 -28.375270 0.722354 0.000000 0.000000 0.000000 10.913940 -5.178115 -3.362513 4.850070 11.486427 -16.703716 15.005446 3.843380 0.131457 -47.276602 35.159819 105.123482 175.990575 74.182650 -176.165482 0.000000 0.000000 0.000000 
